{"title":"High School Musical 3 Senior Year 2008 [Hindi] DVDRip@Mastitorre","uid":6603737,"size":551487605,"categoryP":"video","categoryS":"movies","magnet":"?xt=urn:btih:7b2e572d6ab602709ba918b7c47c4e7509056509&amp;dn=High+School+Musical+3+Senior+Year+2008+%5BHindi%5D+DVDRip%40Mastitorre&amp;tr=udp%3A%2F%2Ftracker.openbittorrent.com%3A80&amp;tr=udp%3A%2F%2Fopen.demonii.com%3A1337&amp;tr=udp%3A%2F%2Ftracker.coppersurfer.tk%3A6969&amp;tr=udp%3A%2F%2Fexodus.desync.com%3A6969","seeders":0,"leechers":1,"uploader":"amanrulz","files":5,"time":1313320784,"description":"mastitorrents.com\n &lt;a href=&quot;\nhttp://mastitorrents.com/forums/index.php&quot; rel=&quot;nofollow&quot; target=&quot;_NEW&quot;&gt;\nhttp://mastitorrents.com/forums/index.php&lt;/a&gt;\n &lt;a href=&quot;\nhttp://www.imdb.com/title/tt0962726/&quot; rel=&quot;nofollow&quot; target=&quot;_NEW&quot;&gt;\nhttp://www.imdb.com/title/tt0962726/&lt;/a&gt;  \n General Format                           : Matroska\n File size                        : 519 MiB\n Duration                         : 1h 38mn[end credit cut]\n Overall bit rate                 : 736 Kbps\n Encoded date                     : UTC 2011-08-10 06:44:56\n Writing application              : mkvmerge v4.7.0 ('Just Like You Imagined') built on Apr 21 2011 01:13:14 Writing library                  : libebml v1.2.0 + libmatroska v1.1.0  Video ID                               : 1 Format                           : AVC Format/Info                      : Advanced Video Codec Format profile                   : &lt;a class=&quot;__cf_email__&quot; href=&quot;/cdn-cgi/l/email-protection&quot; data-cfemail=&quot;a4eccdc3cce4e8908a94&quot;&gt;[email&amp;#160;protected]&lt;/a&gt;&lt;script cf-hash='f9e31' type=&quot;text/javascript&quot;&gt;\n/* &lt;![CDATA[ */!function(){try{var t=&quot;currentScript&quot;in document?document.currentScript:function(){for(var t=document.getElementsByTagName(&quot;script&quot;),e=t.length;e--;)if(t[e].getAttribute(&quot;cf-hash&quot;))return t[e]}();if(t&amp;&amp;t.previousSibling){var e,r,n,i,c=t.previousSibling,a=c.getAttribute(&quot;data-cfemail&quot;);if(a){for(e=&quot;&quot;,r=parseInt(a.substr(0,2),16),n=2;a.length-n;n+=2)i=parseInt(a.substr(n,2),16)^r,e+=String.fromCharCode(i);e=document.createTextNode(e),c.parentNode.replaceChild(e,c)}}}catch(u){}}();/* ]]&gt; */&lt;/script&gt; Format settings, CABAC           : Yes Format settings, ReFrames        : 3 frames Muxing mode                      : Container profile=&lt;a class=&quot;__cf_email__&quot; href=&quot;/cdn-cgi/l/email-protection&quot; data-cfemail=&quot;0653686d6869716846322836&quot;&gt;[email&amp;#160;protected]&lt;/a&gt;&lt;script cf-hash='f9e31' type=&quot;text/javascript&quot;&gt;\n/* &lt;![CDATA[ */!function(){try{var t=&quot;currentScript&quot;in document?document.currentScript:function(){for(var t=document.getElementsByTagName(&quot;script&quot;),e=t.length;e--;)if(t[e].getAttribute(&quot;cf-hash&quot;))return t[e]}();if(t&amp;&amp;t.previousSibling){var e,r,n,i,c=t.previousSibling,a=c.getAttribute(&quot;data-cfemail&quot;);if(a){for(e=&quot;&quot;,r=parseInt(a.substr(0,2),16),n=2;a.length-n;n+=2)i=parseInt(a.substr(n,2),16)^r,e+=String.fromCharCode(i);e=document.createTextNode(e),c.parentNode.replaceChild(e,c)}}}catch(u){}}();/* ]]&gt; */&lt;/script&gt; Codec ID                         : V_MPEG4/ISO/AVC Duration                         : 1h 38mn Bit rate                         : 625 Kbps Width                            : 720 pixels Height                           : 336 pixels Display aspect ratio             : 2.2:1 Frame rate                       : 29.970 fps Resolution                       : 24 bits Colorimetry                      : 4:2:0 Scan type                        : Progressive Bits/(Pixel*Frame)               : 0.086 Stream size                      : 441 MiB (85%) Title                            : imkhan Writing library                  : x264 core 104 r1683 62997d6 Encoding settings                : cabac=1 / ref=3 / deblock=1:0:0 / analyse=0x3:0x133 / me=umh / subme=7 / psy=1 / psy_rd=1.00:0.00 / mixed_ref=1 / me_range=16 / chroma_me=1 / trellis=1 / 8x8dct=1 / cqm=0 / deadzone=21,11 / fast_pskip=1 / chroma_qp_offset=-2 / threads=6 / sliced_threads=0 / nr=0 / decimate=1 / interlaced=0 / constrained_intra=0 / bframes=3 / b_pyramid=0 / b_adapt=1 / b_bias=0 / direct=1 / weightb=1 / open_gop=0 / weightp=2 / keyint=300 / keyint_min=30 / scenecut=40 / intra_refresh=0 / rc_lookahead=40 / rc=crf / mbtree=1 / crf=22.0 / qcomp=0.60 / qpmin=10 / qpmax=51 / qpstep=4 / vbv_maxrate=750 / vbv_bufsize=600 / crf_max=0.0 / ip_ratio=1.40 / aq=1:1.00 / nal_hrd=none\n Language                         : Hindi  Audio\n ID                               : 2\n Format                           : MPEG Audio\n Format version                   : Version 1\n Format profile                   : Layer 3\n Codec ID                         : A_MPEG/L3\n Codec ID/Hint                    : MP3\n Duration                         : 1h 38mn\n Bit rate mode                    : Constant\n Bit rate                         : 96.0 Kbps\n Channel(s)                       : 2 channels\n Sampling rate                    : 44.1 KHz\n Resolution                       : 16 bits\n Stream size                      : 67.7 MiB (13%)\n Title                            : imkhan\n Writing library                  : LAME3.98.2\n Language                         : Hindi","torrent":{"xt":"urn:btih:7b2e572d6ab602709ba918b7c47c4e7509056509","amp;dn":"High+School+Musical+3+Senior+Year+2008+%5BHindi%5D+DVDRip%40Mastitorre","amp;tr":["udp%3A%2F%2Ftracker.openbittorrent.com%3A80","udp%3A%2F%2Fopen.demonii.com%3A1337","udp%3A%2F%2Ftracker.coppersurfer.tk%3A6969","udp%3A%2F%2Fexodus.desync.com%3A6969"],"infoHash":"7b2e572d6ab602709ba918b7c47c4e7509056509","infoHashBuffer":{"type":"Buffer","data":[123,46,87,45,106,182,2,112,155,169,24,183,196,124,78,117,9,5,101,9]},"announce":[],"urlList":[]}}